<svg width="24" height="24" viewBox="0 0 24 24" fill="none" xmlns="http://www.w3.org/2000/svg">
  <path d="M7 5.5C7 4.12 8.12 3 9.5 3H14.5C15.88 3 17 4.12 17 5.5V8.5C17 9.88 15.88 11 14.5 11H9.5C8.12 11 7 9.88 7 8.5V5.5Z" stroke="currentColor" stroke-width="1.6"/>
  <path d="M5 14.5C5 13.12 6.12 12 7.5 12H16.5C17.88 12 19 13.12 19 14.5V18.5C19 19.88 17.88 21 16.5 21H7.5C6.12 21 5 19.88 5 18.5V14.5Z" stroke="currentColor" stroke-width="1.6"/>
  <path d="M12 11.5V12" stroke="currentColor" stroke-width="1.6" stroke-linecap="round"/>
</svg>
